<?xml version="1.0" standalone="no"?><!DOCTYPE svg PUBLIC "-//W3C//DTD SVG 1.1//EN" "http://www.w3.org/Graphics/SVG/1.1/DTD/svg11.dtd"><svg t="1505958909770" class="icon" style="" viewBox="0 0 1024 1024" version="1.1" xmlns="http://www.w3.org/2000/svg" p-id="5809" xmlns:xlink="http://www.w3.org/1999/xlink" width="200" height="200"><defs><style type="text/css"></style></defs><path d="M915.170362 129.49019 108.241236 129.49019c-24.40483 0-44.26004 19.854187-44.26004 44.26004l0 551.086204c0 24.405853 19.85521 44.26004 44.26004 44.26004l83.661422 0 0 90.520643c0 12.888542 7.058766 24.672936 18.422581 30.754444 5.16872 2.765997 10.822486 4.137227 16.46295 4.137227 6.759961-0.001023 13.498432-1.970888 19.34458-5.867638l179.315992-119.543653 489.722624 0c24.40483 0 44.26004-19.854187 44.26004-44.26004L959.431425 173.750229C959.430402 149.3454 939.575192 129.49019 915.170362 129.49019zM895.469672 705.136765 406.081669 705.136765l-150.21828 100.145861 0-100.145861L127.941927 705.136765 127.941927 193.45092l767.527744 0L895.469672 705.136765zM256.157078 321.372382l543.371498 0 0 63.960731-543.371498 0 0-63.960731ZM256.157078 511.745197l383.76336 0 0 63.960731-383.76336 0 0-63.960731Z" p-id="5810"></path></svg>