<?xml version="1.0" standalone="no"?><!DOCTYPE svg PUBLIC "-//W3C//DTD SVG 1.1//EN" "http://www.w3.org/Graphics/SVG/1.1/DTD/svg11.dtd"><svg t="1505958810895" class="icon" style="" viewBox="0 0 1024 1024" version="1.1" xmlns="http://www.w3.org/2000/svg" p-id="4277" xmlns:xlink="http://www.w3.org/1999/xlink" width="200" height="200"><defs><style type="text/css"></style></defs><path d="M831.707429 447.853714a63.975619 63.975619 0 1 1-127.951239 0 63.975619 63.975619 0 1 1 127.951239 0zM575.780571 447.853714a63.975619 63.975619 0 1 1-127.975619 0.024381 63.975619 63.975619 0 0 1 127.975619-0.024381z" fill="#3955B6" p-id="4278"></path><path d="M126.244571 895.707429C56.490667 895.707429 0 833.609143 0 757.052952V138.630095C0 62.073905 56.490667 0 126.244571 0h770.389334c69.705143 0 127.024762 62.073905 127.024762 138.630095v618.471619c0 76.53181-57.319619 138.630095-127.024762 138.630096H423.082667l-104.984381 117.540571a31.792762 31.792762 0 0 1-47.445334-42.300952l114.93181-128.877715c5.315048-5.87581 12.336762-8.97219 19.577905-9.971809v-0.438857h1.633523c0.75581-0.048762 1.438476 0 2.243048 0h495.274667c30.573714 0 55.344762-28.623238 55.344762-63.975619V132.266667c0-35.328-24.771048-68.291048-55.344762-68.291048H119.296c-30.524952 0-55.320381 32.963048-55.320381 68.291048v635.440762c0 35.352381 24.795429 63.975619 55.320381 63.975619h72.655238v64.024381H126.244571z" fill="#3955B6" p-id="4279"></path><path d="M319.878095 447.853714a63.975619 63.975619 0 1 1-127.975619 0.024381 63.975619 63.975619 0 0 1 127.975619-0.024381z" fill="#3955B6" p-id="4280"></path></svg>