<?xml version="1.0" standalone="no"?><!DOCTYPE svg PUBLIC "-//W3C//DTD SVG 1.1//EN" "http://www.w3.org/Graphics/SVG/1.1/DTD/svg11.dtd"><svg t="1505958938982" class="icon" style="" viewBox="0 0 1024 1024" version="1.1" xmlns="http://www.w3.org/2000/svg" p-id="6608" xmlns:xlink="http://www.w3.org/1999/xlink" width="200" height="200"><defs><style type="text/css"></style></defs><path d="M826.180267 415.470933c38.946133-28.330667 64.256-74.257067 64.256-126.088533 0-86.050133-69.751467-155.818667-155.818667-155.818667-13.380267 0-26.350933 1.672533-38.741333 4.846933 10.615467 25.975467 16.469333 54.408533 16.469333 84.206933 0 1.262933-0.017067 2.542933-0.034133 3.805867 6.9632-2.4576 14.472533-3.805867 22.289067-3.805867 36.881067 0 66.781867 29.9008 66.781867 66.781867s-29.9008 66.781867-66.781867 66.781867c-20.514133 0-38.877867-9.250133-51.131733-23.825067-14.8992 26.248533-35.003733 49.186133-58.88 67.396267 5.717333 5.700267 4.625067 20.6336-2.0992 23.466667 43.707733 15.342933 83.968 38.058667 119.261867 66.645333 107.332267 3.771733 193.194667 91.972267 193.194667 200.226133 0 33.536-16.9984 50.2272-47.957333 58.538667 2.269867 17.271467 3.447467 34.884267 3.447467 52.770133 0 14.506667-0.768 28.0576-2.269867 40.738133C972.680533 832.802133 1024 800.6144 1024 690.090667 1024 562.261333 941.124267 453.7856 826.180267 415.470933z" p-id="6609"></path><path d="M510.9248 416.0512c67.1232-38.331733 112.366933-110.609067 112.366933-193.4336C623.3088 99.669333 523.639467 0 400.6912 0S178.090667 99.669333 178.090667 222.600533c0 82.8416 45.243733 155.101867 112.366933 193.4336C122.760533 463.940267 0 618.325333 0 801.399467 0 1022.685867 179.4048 1024 400.6912 1024s400.6912-1.314133 400.6912-222.600533C801.399467 618.325333 678.621867 463.940267 510.9248 416.0512zM267.127467 222.600533c0-73.762133 59.8016-133.563733 133.563733-133.563733s133.563733 59.818667 133.563733 133.5808c0 73.762133-59.8016 133.563733-133.563733 133.563733S267.127467 296.362667 267.127467 222.600533zM400.6912 934.9632c-172.117333 0-311.6544 0-311.6544-133.563733 0-172.1344 139.537067-311.6544 311.6544-311.6544s311.6544 133.563733 311.6544 311.6544C712.3456 934.9632 572.808533 934.9632 400.6912 934.9632z" p-id="6610"></path></svg>